#N canvas 314 95 679 430 10;
#X obj 23 365 cnv 15 400 30 empty empty empty 20 12 0 14 -233017 -66577
0;
#X obj 20 103 cnv 15 400 30 empty empty empty 20 12 0 14 -233017 -66577
0;
#X obj 20 240 cnv 15 400 30 empty empty empty 20 12 0 14 -233017 -66577
0;
#X obj 20 17 cnv 15 400 30 empty empty empty 20 12 0 14 -233017 -66577
0;
#X text 24 246 INPUTS:;
#X text 24 111 CONTROLS:;
#X text 26 369 OUTPUTS:;
#X text 26 399 OUT - output;
#X obj 429 15 lp-filter;
#X text 20 59 The "lp-filter" module is a 4-pole resonant lowpass filter
with control over cutoff frequency and resonance.;
#X text 24 23 LOWPASS FILTER:;
#X text 24 141 CUTOFF - controls the cutoff frequency of the filter.
;
#X text 24 171 RES - controls the resonance;
#X text 24 276 IN - signal input;
#X text 24 335 RES - input for cv-control over the RESONANCE.;
#X text 24 299 CUTOFF - input for cv-control over the CUTOFF with onboard
bi-polar attenuator;
#X text 24 201 FM-/+ - bi-polar attenuator for incoming CV at the CUTOFF
input;
