#N canvas 0 22 1134 752 10;
#X obj 294 303 vcf~ 1;
#X obj 327 334 vcf~ 1;
#X obj 360 364 vcf~ 1;
#X obj 393 395 vcf~ 1;
#X obj 514 720 outlet~;
#X obj 106 135 hsl 128 15 1.27 127 1 1 \$0-lowpass-cutoff-s \$0-lowpass-cutoff-r
CUTOFF 133 7 0 10 -262144 -1 -1 2700 1;
#X obj 105 109 cnv 5 5 5 empty empty IN 0 0 0 8 -262144 -66577 0;
#X obj 541 281 +~;
#X obj 541 133 / 127;
#X obj 541 236 sig~;
#X obj 541 258 lop~ 10;
#X obj 106 150 hsl 128 15 1.27 127 1 1 \$0-lowpass-res-s \$0-lowpass-res-r
RES. 133 7 0 10 -262144 -1 -1 12700 1;
#X obj 120 234 / 127;
#X obj 120 333 + 1;
#X obj 120 355 pack 0 50;
#X obj 120 380 line;
#X obj 514 669 min~ 1;
#X obj 514 694 max~ -1;
#X obj 715 207 inlet~;
#X obj 106 164 hsl 128 15 0 127 0 1 \$0-lowpass-fm-/+-s \$0-lowpass-fm-/+-r
FM-/+ 133 7 0 10 -257985 -1 -1 12700 1;
#X obj 783 137 / 127;
#X obj 783 159 * 2;
#X obj 783 181 - 1;
#X obj 783 225 pack 0 50;
#X obj 783 247 line~;
#X floatatom 103 180 5 0 0 0 - - -, f 5;
#X obj 715 264 *~;
#X text 741 268 FM-/+ ATTENUEVERTER;
#X obj 783 203 t f f;
#X obj 173 109 cnv 5 5 5 empty empty CUTOFF 0 0 0 8 -262144 -153857
0;
#X obj 541 108 - 1.27;
#X obj 541 80 t f f;
#X obj 626 317 / 127;
#X obj 626 361 + 4;
#X obj 626 383 pack 0 50;
#X obj 626 405 line~;
#X obj 626 339 * 4;
#X obj 426 422 *~;
#X obj 379 238 t f f f f f;
#X obj 541 155 * 10000;
#X obj 715 229 *~ 10000;
#X obj 120 208 t f f;
#X obj 281 432 lop~;
#X obj 541 199 t f f;
#X obj 699 336 pack 0 100;
#X obj 699 358 line;
#X obj 699 421 +;
#X obj 699 443 t f f;
#X obj 784 337 snapshot~;
#X obj 784 359 t b f;
#X obj 784 306 bang~;
#X obj 195 317 + 1;
#X obj 195 339 pack 0 50;
#X obj 195 361 line~;
#X obj 281 454 lop~;
#X obj 426 537 *~;
#X obj 195 295 * 0.25;
#X obj 426 507 *~ 0.5;
#X obj 281 484 *~ 0.33;
#N canvas 100 22 593 735 state-saving-multiple-instances 0;
#X obj 164 26 loadbang;
#X obj 210 479 textfile;
#X msg 491 462 rewind;
#X msg 448 462 bang;
#X obj 88 657 textfile;
#X obj 448 421 t b b;
#X obj 88 355 f;
#X obj 101 578 f;
#X obj 27 402 t b b b;
#X msg 163 573 clear;
#X obj 230 235 outlet;
#X text 272 237 INSTANCE NUMBER;
#X obj 88 398 pack f f f;
#X msg 88 436 set \$1 \$2 \$3;
#X obj 210 501 unpack f f f;
#X obj 191 200 t f f f;
#X obj 191 164 f \$1;
#X obj 164 59 t b b;
#X obj 27 378 bng 15 250 50 0 empty empty empty 17 7 0 10 -262144 -1
-1;
#X obj 27 234 r SAVE-S;
#X msg 101 605 write statesave/\$1-lowpass-ss.txt;
#X obj 103 307 r \$0-lowpass-cutoff-s;
#X obj 210 573 s \$0-lowpass-cutoff-r;
#X obj 116 345 r \$0-lowpass-res-s;
#X obj 244 547 s \$0-lowpass-res-r;
#X obj 145 373 r \$0-lowpass-fm-/+-s;
#X obj 279 525 s \$0-lowpass-fm-/+-r;
#X msg 210 454 read statesave/\$1-lowpass-ss.txt;
#X connect 0 0 17 0;
#X connect 1 0 14 0;
#X connect 2 0 1 0;
#X connect 3 0 1 0;
#X connect 5 0 3 0;
#X connect 5 1 2 0;
#X connect 6 0 12 0;
#X connect 7 0 20 0;
#X connect 8 0 7 0;
#X connect 8 1 6 0;
#X connect 8 2 9 0;
#X connect 9 0 4 0;
#X connect 12 0 13 0;
#X connect 13 0 4 0;
#X connect 14 0 22 0;
#X connect 14 1 24 0;
#X connect 14 2 26 0;
#X connect 15 0 7 1;
#X connect 15 1 27 0;
#X connect 15 2 10 0;
#X connect 16 0 15 0;
#X connect 17 0 5 0;
#X connect 17 1 16 0;
#X connect 18 0 8 0;
#X connect 19 0 18 0;
#X connect 20 0 4 0;
#X connect 21 0 6 1;
#X connect 23 0 12 1;
#X connect 25 0 12 2;
#X connect 27 0 1 0;
#X restore 380 32 pd state-saving-multiple-instances;
#X obj 120 256 +;
#X obj 120 278 t f f;
#X obj 855 20 inlet~;
#X obj 855 70 snapshot~;
#X obj 899 20 bang~;
#X obj 855 92 t b f;
#X obj 258 109 cnv 5 5 5 empty empty RES 0 0 0 8 -262144 -66577 0;
#X obj 380 168 s \$0-instance-num;
#X obj 380 120 makefilename %d;
#X msg 380 145 label \$1;
#N canvas 81 22 1117 745 state-saving-via-preset-manager-module 0;
#X obj 477 349 textfile;
#X msg 755 332 rewind;
#X msg 712 332 bang;
#X obj 243 690 textfile;
#X obj 712 293 t b b;
#X obj 244 356 f;
#X obj 257 579 f;
#X obj 190 474 t b b b;
#X msg 373 621 clear;
#X obj 244 180 delay 5;
#X obj 190 529 delay 10;
#X msg 190 314 bang;
#X obj 190 155 r STORE-S!;
#X obj 477 250 f;
#X obj 450 207 t b b;
#X obj 465 171 t b f;
#X obj 522 268 f \$1;
#X obj 477 295 pack f f;
#X obj 522 218 loadbang;
#X obj 257 609 pack f f;
#X obj 302 562 loadbang;
#X obj 302 584 f \$1;
#X obj 477 664 pack f f;
#X obj 477 688 line;
#X obj 522 639 r preset-manager-morph-s;
#X obj 465 122 r preset-manager-scan;
#X obj 504 568 pack f f;
#X obj 504 592 line;
#X obj 549 543 r preset-manager-morph-s;
#X obj 272 540 r preset-manager-store-slot;
#X obj 531 471 pack f f;
#X obj 531 495 line;
#X obj 575 432 r preset-manager-morph-s;
#X msg 932 671 stop;
#X obj 932 636 r STOP-MORPH!;
#X msg 243 490 set \$1 \$2 \$3;
#X obj 244 423 pack f f f;
#X obj 477 371 unpack f f f;
#X msg 256 650 write statesave/\$1-\$2-lp-filter-ss.txt;
#X msg 477 324 read statesave/\$1-\$2-lp-filter-ss.txt;
#X obj 259 308 r \$0-lowpass-cutoff-s;
#X obj 477 713 s \$0-lowpass-cutoff-r;
#X obj 267 330 r \$0-lowpass-res-s;
#X obj 504 615 s \$0-lowpass-res-r;
#X obj 290 352 r \$0-lowpass-fm-/+-s;
#X obj 531 518 s \$0-lowpass-fm-/+-r;
#X obj 465 144 i;
#X connect 0 0 37 0;
#X connect 1 0 0 0;
#X connect 2 0 0 0;
#X connect 4 0 2 0;
#X connect 4 1 1 0;
#X connect 5 0 36 0;
#X connect 6 0 19 0;
#X connect 7 0 10 0;
#X connect 7 1 9 0;
#X connect 7 2 8 0;
#X connect 8 0 3 0;
#X connect 9 0 5 0;
#X connect 10 0 6 0;
#X connect 11 0 7 0;
#X connect 12 0 11 0;
#X connect 13 0 17 0;
#X connect 14 0 4 0;
#X connect 14 1 13 0;
#X connect 15 0 14 0;
#X connect 15 1 13 1;
#X connect 16 0 17 1;
#X connect 17 0 39 0;
#X connect 18 0 16 0;
#X connect 19 0 38 0;
#X connect 20 0 21 0;
#X connect 21 0 19 1;
#X connect 22 0 23 0;
#X connect 23 0 41 0;
#X connect 24 0 22 1;
#X connect 25 0 46 0;
#X connect 26 0 27 0;
#X connect 27 0 43 0;
#X connect 28 0 26 1;
#X connect 29 0 6 1;
#X connect 30 0 31 0;
#X connect 31 0 45 0;
#X connect 32 0 30 1;
#X connect 33 0 23 0;
#X connect 33 0 27 0;
#X connect 33 0 31 0;
#X connect 34 0 33 0;
#X connect 35 0 3 0;
#X connect 36 0 35 0;
#X connect 37 0 22 0;
#X connect 37 1 26 0;
#X connect 37 2 30 0;
#X connect 38 0 3 0;
#X connect 39 0 0 0;
#X connect 40 0 5 1;
#X connect 42 0 36 1;
#X connect 44 0 36 2;
#X connect 46 0 15 0;
#X restore 381 11 pd state-saving-via-preset-manager-module;
#X obj 106 582 delwrite~ \$0-lp-filter-1-feedback 1;
#X obj 120 311 * 7;
#X obj 574 605 clip~ -1 1;
#X obj 574 524 hip~ 80;
#X obj 514 644 +~;
#X obj 574 546 hip~ 80;
#X obj 574 481 lop~ 300;
#X obj 574 503 lop~ 300;
#X obj 574 583 *~ 4;
#X obj 574 627 *~ 0.33;
#X obj 514 610 *~ 0.66;
#X obj 107 543 *~ -1;
#X obj 847 414 delread~ \$0-lp-filter-1-feedback;
#X obj 847 436 lop~ 1000;
#X obj 847 458 *~;
#X obj 935 452 r \$0-lowpass-res-s;
#X obj 935 474 / 127;
#X obj 935 520 pack 0 50;
#X obj 935 542 line~;
#X obj 541 177 + 1;
#X obj 426 559 *~ 1;
#X obj 279 232 inlet~;
#X obj 935 496 * 0.8;
#X obj 104 127 cnv 5 5 5 empty empty LP-FILTER(dirty) 0 0 0 12 -262144
-66577 0;
#X obj 229 127 cnv 5 5 5 empty \$0-instance-num 4 0 0 0 12 -262144
-66577 0;
#X obj 273 260 *~ 0.5;
#X connect 0 1 1 0;
#X connect 1 1 2 0;
#X connect 2 1 3 0;
#X connect 3 1 37 0;
#X connect 5 0 31 0;
#X connect 7 0 0 1;
#X connect 7 0 1 1;
#X connect 7 0 2 1;
#X connect 7 0 3 1;
#X connect 8 0 39 0;
#X connect 9 0 10 0;
#X connect 10 0 7 0;
#X connect 11 0 41 0;
#X connect 12 0 60 0;
#X connect 13 0 14 0;
#X connect 14 0 15 0;
#X connect 15 0 38 0;
#X connect 16 0 17 0;
#X connect 17 0 4 0;
#X connect 18 0 40 0;
#X connect 19 0 20 0;
#X connect 20 0 21 0;
#X connect 21 0 22 0;
#X connect 22 0 28 0;
#X connect 23 0 24 0;
#X connect 24 0 26 1;
#X connect 26 0 7 1;
#X connect 26 0 48 0;
#X connect 28 0 23 0;
#X connect 28 1 25 0;
#X connect 30 0 8 0;
#X connect 31 0 30 0;
#X connect 31 1 32 0;
#X connect 32 0 36 0;
#X connect 33 0 34 0;
#X connect 34 0 35 0;
#X connect 35 0 37 1;
#X connect 36 0 33 0;
#X connect 37 0 57 0;
#X connect 38 0 0 2;
#X connect 38 1 1 2;
#X connect 38 2 2 2;
#X connect 38 3 3 2;
#X connect 39 0 90 0;
#X connect 40 0 26 0;
#X connect 41 0 12 0;
#X connect 42 0 54 0;
#X connect 43 0 9 0;
#X connect 43 1 44 0;
#X connect 44 0 45 0;
#X connect 45 0 46 0;
#X connect 46 0 47 0;
#X connect 47 0 42 1;
#X connect 47 1 54 1;
#X connect 48 0 49 0;
#X connect 49 0 46 0;
#X connect 49 1 46 1;
#X connect 50 0 48 0;
#X connect 51 0 52 0;
#X connect 52 0 53 0;
#X connect 53 0 55 1;
#X connect 54 0 58 0;
#X connect 54 0 82 0;
#X connect 55 0 91 0;
#X connect 56 0 51 0;
#X connect 57 0 55 0;
#X connect 58 0 57 0;
#X connect 59 0 68 0;
#X connect 60 0 61 0;
#X connect 61 0 72 0;
#X connect 61 1 56 0;
#X connect 62 0 63 0;
#X connect 63 0 65 0;
#X connect 64 0 63 0;
#X connect 65 0 60 0;
#X connect 65 1 60 1;
#X connect 68 0 69 0;
#X connect 69 0 67 0;
#X connect 72 0 13 0;
#X connect 73 0 80 0;
#X connect 74 0 76 0;
#X connect 75 0 16 0;
#X connect 76 0 79 0;
#X connect 77 0 78 0;
#X connect 78 0 74 0;
#X connect 79 0 73 0;
#X connect 80 0 75 1;
#X connect 81 0 75 0;
#X connect 82 0 71 0;
#X connect 83 0 84 0;
#X connect 84 0 85 0;
#X connect 85 0 42 0;
#X connect 86 0 87 0;
#X connect 87 0 93 0;
#X connect 88 0 89 0;
#X connect 89 0 85 1;
#X connect 90 0 43 0;
#X connect 91 0 77 0;
#X connect 91 0 81 0;
#X connect 92 0 96 0;
#X connect 93 0 88 0;
#X connect 96 0 0 0;
#X connect 96 0 42 0;
#X coords 0 -1 1 1 175 100 2 100 100;
