#N canvas 0 22 1188 598 10;
#X obj 531 23 r notes;
#X obj 531 45 unpack f f;
#X obj 337 438 / 127;
#X obj 337 460 sig~;
#X obj 337 482 outlet~;
#X obj 395 429 pack 0 10;
#X obj 395 451 line~;
#X obj 395 483 outlet~;
#X obj 531 106 poly 4 1;
#X obj 530 138 pack f f f;
#X obj 530 160 route 1 2 3 4;
#X obj 530 281 unpack f f;
#X obj 548 254 unpack f f;
#X obj 567 224 unpack f f;
#X obj 586 197 unpack f f;
#X text 336 506 PITCH 1;
#X text 397 509 GATE 1;
#X obj 395 404 / 100;
#X obj 395 364 t f f;
#X obj 140 155 tgl 15 0 empty empty G1 0 -7 0 10 -262144 -258113 -1
0 1;
#X obj 335 388 t f f;
#X floatatom 103 155 5 0 0 2 PITCH1 - -, f 5;
#X obj 186 115 cnv 5 5 5 empty empty KEYBOARD 0 0 0 12 -262144 -66577
0;
#X obj 120 115 cnv 5 5 5 empty empty ORGANELLE 0 0 0 12 -262144 -66577
0;
#X obj 246 115 cnv 5 5 5 empty empty POLY 0 0 0 12 -262144 -66577 0
;
#X obj 484 437 / 127;
#X obj 484 459 sig~;
#X obj 484 481 outlet~;
#X obj 542 428 pack 0 10;
#X obj 542 450 line~;
#X obj 542 482 outlet~;
#X obj 542 403 / 100;
#X obj 542 363 t f f;
#X obj 482 387 t f f;
#X text 483 505 PITCH 2;
#X text 544 508 GATE 2;
#X obj 625 427 / 127;
#X obj 625 449 sig~;
#X obj 625 471 outlet~;
#X obj 683 418 pack 0 10;
#X obj 683 440 line~;
#X obj 683 472 outlet~;
#X obj 683 393 / 100;
#X obj 683 353 t f f;
#X obj 623 377 t f f;
#X obj 772 426 / 127;
#X obj 772 448 sig~;
#X obj 772 470 outlet~;
#X obj 830 417 pack 0 10;
#X obj 830 439 line~;
#X obj 830 471 outlet~;
#X obj 830 392 / 100;
#X obj 830 352 t f f;
#X obj 770 376 t f f;
#X text 624 495 PITCH 3;
#X text 685 498 GATE 3;
#X text 771 494 PITCH 4;
#X text 832 497 GATE 4;
#X obj 223 155 tgl 15 0 empty empty G2 0 -7 0 10 -262144 -258113 -1
0 1;
#X floatatom 183 155 5 0 0 2 PITCH2 - -, f 5;
#X obj 307 155 tgl 15 0 empty empty G3 0 -7 0 10 -262144 -258113 -1
0 1;
#X floatatom 265 155 5 0 0 2 PITCH3 - -, f 5;
#X obj 383 155 tgl 15 0 empty empty G4 0 -7 0 10 -262144 -258113 -1
0 1;
#X floatatom 348 155 5 0 0 2 PITCH4 - -, f 5;
#X connect 0 0 1 0;
#X connect 1 0 8 0;
#X connect 1 1 8 1;
#X connect 2 0 3 0;
#X connect 3 0 4 0;
#X connect 5 0 6 0;
#X connect 6 0 7 0;
#X connect 8 0 9 0;
#X connect 8 1 9 1;
#X connect 8 2 9 2;
#X connect 9 0 10 0;
#X connect 10 0 11 0;
#X connect 10 1 12 0;
#X connect 10 2 13 0;
#X connect 10 3 14 0;
#X connect 11 0 20 0;
#X connect 11 1 18 0;
#X connect 12 0 33 0;
#X connect 12 1 32 0;
#X connect 13 0 44 0;
#X connect 13 1 43 0;
#X connect 14 0 53 0;
#X connect 14 1 52 0;
#X connect 17 0 5 0;
#X connect 18 0 17 0;
#X connect 18 1 19 0;
#X connect 20 0 2 0;
#X connect 20 1 21 0;
#X connect 25 0 26 0;
#X connect 26 0 27 0;
#X connect 28 0 29 0;
#X connect 29 0 30 0;
#X connect 31 0 28 0;
#X connect 32 0 31 0;
#X connect 32 1 58 0;
#X connect 33 0 25 0;
#X connect 33 1 59 0;
#X connect 36 0 37 0;
#X connect 37 0 38 0;
#X connect 39 0 40 0;
#X connect 40 0 41 0;
#X connect 42 0 39 0;
#X connect 43 0 42 0;
#X connect 43 1 60 0;
#X connect 44 0 36 0;
#X connect 44 1 61 0;
#X connect 45 0 46 0;
#X connect 46 0 47 0;
#X connect 48 0 49 0;
#X connect 49 0 50 0;
#X connect 51 0 48 0;
#X connect 52 0 51 0;
#X connect 52 1 62 0;
#X connect 53 0 45 0;
#X connect 53 1 63 0;
#X coords 0 -1 1 1 300 75 2 100 100;
