#N canvas 77 22 1239 706 10;
#X obj 461 47 inlet~;
#X obj 461 104 s~ \$0-spectral-input-s;
#X obj 219 146 vsl 15 128 0 127 0 1 \$0-sb-770-s \$0-sb-770-r B4 0
-9 0 10 -262144 -1 -1 0 1;
#X obj 174 146 vsl 15 128 0 127 0 1 \$0-sb-100-s \$0-sb-100-r B1 0
-9 0 10 -262144 -1 -1 0 1;
#X obj 555 411 catch~ \$0-sb-filter1;
#X obj 577 436 catch~ \$0-sb-filter2;
#X obj 189 146 vsl 15 128 0 127 0 1 \$0-sb-300-s \$0-sb-300-r B2 0
-9 0 10 -262144 -1 -1 0 1;
#X obj 594 460 catch~ \$0-sb-filter3;
#X obj 555 642 outlet~ OMNI;
#X obj 123 146 vsl 15 128 0 127 0 1 \$0-sb-noise-s \$0-sb-noise-r NOISE
4 -9 0 10 -262144 -1 -1 0 1;
#X obj 275 413 r \$0-sb-q-s;
#X obj 275 435 / 127;
#X obj 275 573 s \$0-sb-global-q-s;
#X obj 594 498 catch~ \$0-sb-filter4;
#X obj 204 146 vsl 15 128 0 127 0 1 \$0-sb-510-s \$0-sb-510-r B3 0
-9 0 10 -262144 -1 -1 0 1;
#X obj 555 620 *~;
#X obj 275 461 t f f;
#X obj 339 478 + 1;
#X obj 339 500 pack 0 50;
#X obj 339 522 line~;
#N canvas 0 22 1135 421 FILTERS_1-4 0;
#X obj 45 75 r~ \$0-spectral-input-s;
#X obj 45 334 *~;
#X obj 114 207 r \$0-sb-100-s;
#X obj 114 229 / 127;
#X obj 114 273 pack 0 50;
#X obj 114 295 line~;
#X obj 61 96 loadbang;
#X msg 61 118 100;
#X obj 61 140 sig~;
#X obj 114 317 +~;
#X obj 254 53 r~ \$0-spectral-input-s;
#X obj 254 312 *~;
#X obj 318 207 / 127;
#X obj 318 251 pack 0 50;
#X obj 318 273 line~;
#X obj 254 140 vcf~ 1;
#X obj 270 74 loadbang;
#X obj 270 118 sig~;
#X obj 254 165 vcf~ 1;
#X obj 254 187 vcf~ 1;
#X obj 254 212 vcf~ 1;
#X obj 254 241 vcf~ 1;
#X obj 254 266 vcf~ 1;
#X obj 318 295 +~;
#X msg 270 96 300;
#X obj 318 185 r \$0-sb-300-s;
#X obj 178 256 inlet~ CV-1;
#X obj 45 365 throw~ \$0-sb-filter1;
#X obj 254 363 throw~ \$0-sb-filter2;
#X obj 459 49 r~ \$0-spectral-input-s;
#X obj 459 308 *~;
#X obj 521 203 / 127;
#X obj 521 247 pack 0 50;
#X obj 521 269 line~;
#X obj 475 70 loadbang;
#X obj 475 114 sig~;
#X obj 521 291 +~;
#X obj 459 359 throw~ \$0-sb-filter3;
#X obj 521 181 r \$0-sb-510-s;
#X msg 475 92 510;
#X obj 45 162 vcf~ 1;
#X obj 45 187 vcf~ 1;
#X obj 45 209 vcf~ 1;
#X obj 45 234 vcf~ 1;
#X obj 45 263 vcf~ 1;
#X obj 45 287 vcf~ 1;
#X obj 459 136 vcf~ 1;
#X obj 459 161 vcf~ 1;
#X obj 459 183 vcf~ 1;
#X obj 459 208 vcf~ 1;
#X obj 459 237 vcf~ 1;
#X obj 459 262 vcf~ 1;
#X msg 118 145 \$1;
#X msg 320 123 \$1;
#X msg 523 119 \$1;
#X obj 118 123 r \$0-sb-global-q-s;
#X obj 320 101 r \$0-sb-global-q-s;
#X obj 523 97 r \$0-sb-global-q-s;
#X obj 178 300 lop~ 1000;
#X obj 666 43 r~ \$0-spectral-input-s;
#X obj 666 302 *~;
#X obj 728 197 / 127;
#X obj 728 241 pack 0 50;
#X obj 728 263 line~;
#X obj 682 64 loadbang;
#X obj 682 108 sig~;
#X obj 728 285 +~;
#X obj 666 130 vcf~ 1;
#X obj 666 155 vcf~ 1;
#X obj 666 177 vcf~ 1;
#X obj 666 202 vcf~ 1;
#X obj 666 231 vcf~ 1;
#X obj 666 256 vcf~ 1;
#X msg 730 113 \$1;
#X obj 730 91 r \$0-sb-global-q-s;
#X obj 666 353 throw~ \$0-sb-filter4;
#X msg 682 86 770;
#X obj 728 175 r \$0-sb-770-s;
#X obj 178 278 *~ 4;
#X obj 114 251 * 4;
#X obj 318 229 * 4;
#X obj 521 225 * 4;
#X obj 728 219 * 4;
#X connect 0 0 40 0;
#X connect 1 0 27 0;
#X connect 2 0 3 0;
#X connect 3 0 79 0;
#X connect 4 0 5 0;
#X connect 5 0 9 0;
#X connect 6 0 7 0;
#X connect 7 0 8 0;
#X connect 8 0 40 1;
#X connect 8 0 41 1;
#X connect 8 0 42 1;
#X connect 8 0 43 1;
#X connect 8 0 44 1;
#X connect 8 0 45 1;
#X connect 9 0 1 1;
#X connect 10 0 15 0;
#X connect 11 0 28 0;
#X connect 12 0 80 0;
#X connect 13 0 14 0;
#X connect 14 0 23 0;
#X connect 15 0 18 0;
#X connect 16 0 24 0;
#X connect 17 0 15 1;
#X connect 17 0 18 1;
#X connect 17 0 19 1;
#X connect 17 0 20 1;
#X connect 17 0 21 1;
#X connect 17 0 22 1;
#X connect 18 0 19 0;
#X connect 19 0 20 0;
#X connect 20 0 21 0;
#X connect 21 0 22 0;
#X connect 22 0 11 0;
#X connect 23 0 11 1;
#X connect 24 0 17 0;
#X connect 25 0 12 0;
#X connect 26 0 78 0;
#X connect 29 0 46 0;
#X connect 30 0 37 0;
#X connect 31 0 81 0;
#X connect 32 0 33 0;
#X connect 33 0 36 0;
#X connect 34 0 39 0;
#X connect 35 0 46 1;
#X connect 35 0 47 1;
#X connect 35 0 48 1;
#X connect 35 0 49 1;
#X connect 35 0 50 1;
#X connect 35 0 51 1;
#X connect 36 0 30 1;
#X connect 38 0 31 0;
#X connect 39 0 35 0;
#X connect 40 0 41 0;
#X connect 41 0 42 0;
#X connect 42 0 43 0;
#X connect 43 0 44 0;
#X connect 44 0 45 0;
#X connect 45 0 1 0;
#X connect 46 0 47 0;
#X connect 47 0 48 0;
#X connect 48 0 49 0;
#X connect 49 0 50 0;
#X connect 50 0 51 0;
#X connect 51 0 30 0;
#X connect 52 0 40 2;
#X connect 52 0 41 2;
#X connect 52 0 42 2;
#X connect 52 0 43 2;
#X connect 52 0 44 2;
#X connect 52 0 45 2;
#X connect 53 0 15 2;
#X connect 53 0 18 2;
#X connect 53 0 19 2;
#X connect 53 0 20 2;
#X connect 53 0 21 2;
#X connect 53 0 22 2;
#X connect 54 0 46 2;
#X connect 54 0 47 2;
#X connect 54 0 48 2;
#X connect 54 0 49 2;
#X connect 54 0 50 2;
#X connect 54 0 51 2;
#X connect 55 0 52 0;
#X connect 56 0 53 0;
#X connect 57 0 54 0;
#X connect 58 0 9 1;
#X connect 58 0 23 1;
#X connect 58 0 36 1;
#X connect 58 0 66 1;
#X connect 59 0 67 0;
#X connect 60 0 75 0;
#X connect 61 0 82 0;
#X connect 62 0 63 0;
#X connect 63 0 66 0;
#X connect 64 0 76 0;
#X connect 65 0 67 1;
#X connect 65 0 68 1;
#X connect 65 0 69 1;
#X connect 65 0 70 1;
#X connect 65 0 71 1;
#X connect 65 0 72 1;
#X connect 66 0 60 1;
#X connect 67 0 68 0;
#X connect 68 0 69 0;
#X connect 69 0 70 0;
#X connect 70 0 71 0;
#X connect 71 0 72 0;
#X connect 72 0 60 0;
#X connect 73 0 67 2;
#X connect 73 0 68 2;
#X connect 73 0 69 2;
#X connect 73 0 70 2;
#X connect 73 0 71 2;
#X connect 73 0 72 2;
#X connect 74 0 73 0;
#X connect 76 0 65 0;
#X connect 77 0 61 0;
#X connect 78 0 58 0;
#X connect 79 0 4 0;
#X connect 80 0 13 0;
#X connect 81 0 32 0;
#X connect 82 0 62 0;
#X restore 606 157 pd FILTERS_1-4;
#N canvas 0 22 1135 421 FILTERS_5-8 0;
#X obj 45 75 r~ \$0-spectral-input-s;
#X obj 45 334 *~;
#X obj 114 229 / 127;
#X obj 114 273 pack 0 50;
#X obj 114 295 line~;
#X obj 61 96 loadbang;
#X obj 61 140 sig~;
#X obj 114 317 +~;
#X obj 254 53 r~ \$0-spectral-input-s;
#X obj 254 312 *~;
#X obj 318 207 / 127;
#X obj 318 251 pack 0 50;
#X obj 318 273 line~;
#X obj 254 140 vcf~ 1;
#X obj 270 74 loadbang;
#X obj 270 118 sig~;
#X obj 254 165 vcf~ 1;
#X obj 254 187 vcf~ 1;
#X obj 254 212 vcf~ 1;
#X obj 254 241 vcf~ 1;
#X obj 254 266 vcf~ 1;
#X obj 318 295 +~;
#X obj 459 49 r~ \$0-spectral-input-s;
#X obj 459 308 *~;
#X obj 521 203 / 127;
#X obj 521 247 pack 0 50;
#X obj 521 269 line~;
#X obj 475 70 loadbang;
#X obj 475 114 sig~;
#X obj 521 291 +~;
#X obj 45 162 vcf~ 1;
#X obj 45 187 vcf~ 1;
#X obj 45 209 vcf~ 1;
#X obj 45 234 vcf~ 1;
#X obj 45 263 vcf~ 1;
#X obj 45 287 vcf~ 1;
#X obj 459 136 vcf~ 1;
#X obj 459 161 vcf~ 1;
#X obj 459 183 vcf~ 1;
#X obj 459 208 vcf~ 1;
#X obj 459 237 vcf~ 1;
#X obj 459 262 vcf~ 1;
#X msg 118 145 \$1;
#X msg 320 123 \$1;
#X msg 523 119 \$1;
#X obj 118 123 r \$0-sb-global-q-s;
#X obj 320 101 r \$0-sb-global-q-s;
#X obj 523 97 r \$0-sb-global-q-s;
#X obj 178 300 lop~ 1000;
#X obj 666 43 r~ \$0-spectral-input-s;
#X obj 666 302 *~;
#X obj 728 197 / 127;
#X obj 728 241 pack 0 50;
#X obj 728 263 line~;
#X obj 682 64 loadbang;
#X obj 682 108 sig~;
#X obj 728 285 +~;
#X obj 666 130 vcf~ 1;
#X obj 666 155 vcf~ 1;
#X obj 666 177 vcf~ 1;
#X obj 666 202 vcf~ 1;
#X obj 666 231 vcf~ 1;
#X obj 666 256 vcf~ 1;
#X msg 730 113 \$1;
#X obj 730 91 r \$0-sb-global-q-s;
#X msg 61 118 1080;
#X obj 114 207 r \$0-sb-1.08k-s;
#X obj 178 256 inlet~ CV-5;
#X obj 45 365 throw~ \$0-sb-filter5;
#X msg 270 96 1480;
#X obj 318 185 r \$0-sb-1.48k-s;
#X obj 254 363 throw~ \$0-sb-filter6;
#X msg 475 92 2000;
#X obj 521 181 r \$0-sb-2k-s;
#X obj 459 359 throw~ \$0-sb-filter7;
#X msg 682 86 2700;
#X obj 728 175 r \$0-sb-2.7k-s;
#X obj 666 353 throw~ \$0-sb-filter8;
#X obj 178 278 *~ 4;
#X obj 114 251 * 4;
#X obj 318 229 * 4;
#X obj 521 225 * 4;
#X obj 728 219 * 4;
#X connect 0 0 30 0;
#X connect 1 0 68 0;
#X connect 2 0 79 0;
#X connect 3 0 4 0;
#X connect 4 0 7 0;
#X connect 5 0 65 0;
#X connect 6 0 30 1;
#X connect 6 0 31 1;
#X connect 6 0 32 1;
#X connect 6 0 33 1;
#X connect 6 0 34 1;
#X connect 6 0 35 1;
#X connect 7 0 1 1;
#X connect 8 0 13 0;
#X connect 9 0 71 0;
#X connect 10 0 80 0;
#X connect 11 0 12 0;
#X connect 12 0 21 0;
#X connect 13 0 16 0;
#X connect 14 0 69 0;
#X connect 15 0 13 1;
#X connect 15 0 16 1;
#X connect 15 0 17 1;
#X connect 15 0 18 1;
#X connect 15 0 19 1;
#X connect 15 0 20 1;
#X connect 16 0 17 0;
#X connect 17 0 18 0;
#X connect 18 0 19 0;
#X connect 19 0 20 0;
#X connect 20 0 9 0;
#X connect 21 0 9 1;
#X connect 22 0 36 0;
#X connect 23 0 74 0;
#X connect 24 0 81 0;
#X connect 25 0 26 0;
#X connect 26 0 29 0;
#X connect 27 0 72 0;
#X connect 28 0 36 1;
#X connect 28 0 37 1;
#X connect 28 0 38 1;
#X connect 28 0 39 1;
#X connect 28 0 40 1;
#X connect 28 0 41 1;
#X connect 29 0 23 1;
#X connect 30 0 31 0;
#X connect 31 0 32 0;
#X connect 32 0 33 0;
#X connect 33 0 34 0;
#X connect 34 0 35 0;
#X connect 35 0 1 0;
#X connect 36 0 37 0;
#X connect 37 0 38 0;
#X connect 38 0 39 0;
#X connect 39 0 40 0;
#X connect 40 0 41 0;
#X connect 41 0 23 0;
#X connect 42 0 30 2;
#X connect 42 0 31 2;
#X connect 42 0 32 2;
#X connect 42 0 33 2;
#X connect 42 0 34 2;
#X connect 42 0 35 2;
#X connect 43 0 13 2;
#X connect 43 0 16 2;
#X connect 43 0 17 2;
#X connect 43 0 18 2;
#X connect 43 0 19 2;
#X connect 43 0 20 2;
#X connect 44 0 36 2;
#X connect 44 0 37 2;
#X connect 44 0 38 2;
#X connect 44 0 39 2;
#X connect 44 0 40 2;
#X connect 44 0 41 2;
#X connect 45 0 42 0;
#X connect 46 0 43 0;
#X connect 47 0 44 0;
#X connect 48 0 7 1;
#X connect 48 0 21 1;
#X connect 48 0 29 1;
#X connect 48 0 56 1;
#X connect 49 0 57 0;
#X connect 50 0 77 0;
#X connect 51 0 82 0;
#X connect 52 0 53 0;
#X connect 53 0 56 0;
#X connect 54 0 75 0;
#X connect 55 0 57 1;
#X connect 55 0 58 1;
#X connect 55 0 59 1;
#X connect 55 0 60 1;
#X connect 55 0 61 1;
#X connect 55 0 62 1;
#X connect 56 0 50 1;
#X connect 57 0 58 0;
#X connect 58 0 59 0;
#X connect 59 0 60 0;
#X connect 60 0 61 0;
#X connect 61 0 62 0;
#X connect 62 0 50 0;
#X connect 63 0 57 2;
#X connect 63 0 58 2;
#X connect 63 0 59 2;
#X connect 63 0 60 2;
#X connect 63 0 61 2;
#X connect 63 0 62 2;
#X connect 64 0 63 0;
#X connect 65 0 6 0;
#X connect 66 0 2 0;
#X connect 67 0 78 0;
#X connect 69 0 15 0;
#X connect 70 0 10 0;
#X connect 72 0 28 0;
#X connect 73 0 24 0;
#X connect 75 0 55 0;
#X connect 76 0 51 0;
#X connect 78 0 48 0;
#X connect 79 0 3 0;
#X connect 80 0 11 0;
#X connect 81 0 25 0;
#X connect 82 0 52 0;
#X restore 699 157 pd FILTERS_5-8;
#X obj 279 146 vsl 15 128 0 127 0 1 \$0-sb-2.7k-s \$0-sb-2.7k-r B8
0 -9 0 10 -262144 -1 -1 12400 1;
#X obj 234 146 vsl 15 128 0 127 0 1 \$0-sb-1.08k-s \$0-sb-1.08k-r B5
0 -9 0 10 -262144 -1 -1 12700 1;
#X obj 249 146 vsl 15 128 0 127 0 1 \$0-sb-1.48k-s \$0-sb-1.48k-r B6
0 -9 0 10 -262144 -1 -1 0 1;
#X obj 264 146 vsl 15 128 0 127 0 1 \$0-sb-2k-s \$0-sb-2k-r B7 0 -9
0 10 -262144 -1 -1 0 1;
#X obj 555 555 max~ -1;
#X obj 555 577 min~ 1;
#X obj 339 544 s~ \$0-sb-gain-comp;
#X obj 570 598 r~ \$0-sb-gain-comp;
#X obj 732 625 *~;
#X obj 732 560 max~ -1;
#X obj 732 582 min~ 1;
#X obj 747 603 r~ \$0-sb-gain-comp;
#X obj 732 416 catch~ \$0-sb-filter5;
#X obj 754 441 catch~ \$0-sb-filter6;
#X obj 771 465 catch~ \$0-sb-filter7;
#X obj 771 503 catch~ \$0-sb-filter8;
#X text 592 334 gör 8 till och ändra CV till gruppering utav 4;
#N canvas 0 22 1135 421 FILTERS_9-12 0;
#X obj 45 75 r~ \$0-spectral-input-s;
#X obj 45 334 *~;
#X obj 114 229 / 127;
#X obj 114 251 * 2;
#X obj 114 273 pack 0 50;
#X obj 114 295 line~;
#X obj 63 95 loadbang;
#X obj 63 139 sig~;
#X obj 114 317 +~;
#X obj 178 278 *~ 2;
#X obj 254 53 r~ \$0-spectral-input-s;
#X obj 254 312 *~;
#X obj 318 207 / 127;
#X obj 318 229 * 2;
#X obj 318 251 pack 0 50;
#X obj 318 273 line~;
#X obj 254 140 vcf~ 1;
#X obj 270 74 loadbang;
#X obj 270 118 sig~;
#X obj 254 165 vcf~ 1;
#X obj 318 295 +~;
#X obj 459 49 r~ \$0-spectral-input-s;
#X obj 459 308 *~;
#X obj 521 203 / 127;
#X obj 521 225 * 2;
#X obj 521 247 pack 0 50;
#X obj 521 269 line~;
#X obj 475 70 loadbang;
#X obj 475 114 sig~;
#X obj 521 291 +~;
#X obj 45 162 vcf~ 1;
#X obj 459 136 vcf~ 1;
#X obj 459 161 vcf~ 1;
#X msg 118 145 \$1;
#X msg 320 123 \$1;
#X msg 523 119 \$1;
#X obj 118 123 r \$0-sb-global-q-s;
#X obj 320 101 r \$0-sb-global-q-s;
#X obj 523 97 r \$0-sb-global-q-s;
#X obj 178 300 lop~ 1000;
#X obj 666 43 r~ \$0-spectral-input-s;
#X obj 666 302 *~;
#X obj 728 197 / 127;
#X obj 728 219 * 2;
#X obj 728 241 pack 0 50;
#X obj 728 263 line~;
#X obj 682 64 loadbang;
#X obj 682 108 sig~;
#X obj 728 285 +~;
#X obj 666 130 vcf~ 1;
#X obj 666 155 vcf~ 1;
#X msg 730 113 \$1;
#X obj 730 91 r \$0-sb-global-q-s;
#X obj 178 256 inlet~ CV-5;
#X obj 45 365 throw~ \$0-sb-filter9;
#X obj 254 363 throw~ \$0-sb-filter10;
#X obj 459 359 throw~ \$0-sb-filter11;
#X obj 666 353 throw~ \$0-sb-filter12;
#X obj 114 207 r \$0-sb-3.7-s;
#X obj 318 185 r \$0-sb-5.3-s;
#X msg 63 117 3700;
#X msg 270 96 5300;
#X msg 475 92 7700;
#X msg 682 86 10000;
#X obj 728 175 r \$0-sb-10k-s;
#X obj 521 181 r \$0-sb-7.7k-s;
#X obj 45 184 vcf~ 1;
#X connect 0 0 30 0;
#X connect 1 0 54 0;
#X connect 2 0 3 0;
#X connect 3 0 4 0;
#X connect 4 0 5 0;
#X connect 5 0 8 0;
#X connect 6 0 60 0;
#X connect 7 0 30 1;
#X connect 7 0 66 1;
#X connect 8 0 1 1;
#X connect 9 0 39 0;
#X connect 10 0 16 0;
#X connect 11 0 55 0;
#X connect 12 0 13 0;
#X connect 13 0 14 0;
#X connect 14 0 15 0;
#X connect 15 0 20 0;
#X connect 16 0 19 0;
#X connect 17 0 61 0;
#X connect 18 0 16 1;
#X connect 18 0 19 1;
#X connect 19 0 11 0;
#X connect 20 0 11 1;
#X connect 21 0 31 0;
#X connect 22 0 56 0;
#X connect 23 0 24 0;
#X connect 24 0 25 0;
#X connect 25 0 26 0;
#X connect 26 0 29 0;
#X connect 27 0 62 0;
#X connect 28 0 31 1;
#X connect 28 0 32 1;
#X connect 29 0 22 1;
#X connect 30 0 66 0;
#X connect 31 0 32 0;
#X connect 32 0 22 0;
#X connect 33 0 30 2;
#X connect 33 0 66 2;
#X connect 34 0 16 2;
#X connect 34 0 19 2;
#X connect 35 0 31 2;
#X connect 35 0 32 2;
#X connect 36 0 33 0;
#X connect 37 0 34 0;
#X connect 38 0 35 0;
#X connect 39 0 8 1;
#X connect 39 0 20 1;
#X connect 39 0 29 1;
#X connect 39 0 48 1;
#X connect 40 0 49 0;
#X connect 41 0 57 0;
#X connect 42 0 43 0;
#X connect 43 0 44 0;
#X connect 44 0 45 0;
#X connect 45 0 48 0;
#X connect 46 0 63 0;
#X connect 47 0 49 1;
#X connect 47 0 50 1;
#X connect 48 0 41 1;
#X connect 49 0 50 0;
#X connect 50 0 41 0;
#X connect 51 0 49 2;
#X connect 51 0 50 2;
#X connect 52 0 51 0;
#X connect 53 0 9 0;
#X connect 58 0 2 0;
#X connect 59 0 12 0;
#X connect 60 0 7 0;
#X connect 61 0 18 0;
#X connect 62 0 28 0;
#X connect 63 0 47 0;
#X connect 64 0 42 0;
#X connect 65 0 23 0;
#X connect 66 0 1 0;
#X restore 795 156 pd FILTERS_9-12;
#X obj 1050 130 vsl 15 128 0 127 0 1 \$0-sb-10k-s \$0-sb-10k-r 10k
0 140 0 10 -262144 -1 -1 9500 1;
#X obj 984 130 vsl 15 128 0 127 0 1 \$0-sb-3.7-s \$0-sb-3.7-r 3.7k
0 -9 0 10 -262144 -1 -1 8600 1;
#X obj 1005 130 vsl 15 128 0 127 0 1 \$0-sb-5.3-s \$0-sb-5.3-r 5.3k
0 140 0 10 -262144 -1 -1 4700 1;
#X obj 1025 130 vsl 15 128 0 127 0 1 \$0-sb-7.7k-s \$0-sb-7.7k-r 7.7k
0 -9 0 10 -262144 -1 -1 8300 1;
#X obj 606 68 inlet~ CV1;
#X obj 699 68 inlet~ CV2;
#X obj 795 67 inlet~ CV3;
#X obj 906 484 *~ 0.25;
#X obj 906 506 max~ -1;
#X obj 906 528 min~ 1;
#X obj 906 360 catch~ \$0-sb-filter9;
#X obj 928 387 catch~ \$0-sb-filter10;
#X obj 945 411 catch~ \$0-sb-filter11;
#X obj 945 449 catch~ \$0-sb-filter12;
#X obj 921 556 r~ \$0-sb-gain-comp;
#X obj 906 626 *~;
#X obj 339 452 * 6;
#X obj 361 57 noise~;
#X obj 377 130 *~;
#X obj 304 146 vsl 15 128 0 127 0 1 \$0-sb-q-s \$0-sb-q-r Q 4 -9 0
10 -262144 -1 -1 0 1;
#X obj 388 186 r \$0-sb-noise-s;
#X obj 388 208 * 0.00787402;
#X obj 388 230 pack 0 50;
#X obj 388 252 line~;
#X obj 275 507 * 19;
#X obj 361 79 *~ 0.75;
#X obj 555 533 *~ 0.25;
#X obj 732 538 *~ 0.25;
#X obj 275 529 + 1.5;
#X connect 0 0 1 0;
#X connect 4 0 66 0;
#X connect 5 0 66 0;
#X connect 7 0 66 0;
#X connect 10 0 11 0;
#X connect 11 0 16 0;
#X connect 13 0 66 0;
#X connect 15 0 8 0;
#X connect 16 0 64 0;
#X connect 16 1 56 0;
#X connect 17 0 18 0;
#X connect 18 0 19 0;
#X connect 19 0 28 0;
#X connect 26 0 27 0;
#X connect 27 0 15 0;
#X connect 29 0 15 1;
#X connect 30 0 8 0;
#X connect 31 0 32 0;
#X connect 32 0 30 0;
#X connect 33 0 30 1;
#X connect 34 0 67 0;
#X connect 35 0 67 0;
#X connect 36 0 67 0;
#X connect 37 0 67 0;
#X connect 44 0 20 0;
#X connect 45 0 21 0;
#X connect 46 0 39 0;
#X connect 47 0 48 0;
#X connect 48 0 49 0;
#X connect 49 0 55 0;
#X connect 50 0 47 0;
#X connect 51 0 47 0;
#X connect 52 0 47 0;
#X connect 53 0 47 0;
#X connect 54 0 55 1;
#X connect 56 0 17 0;
#X connect 57 0 65 0;
#X connect 58 0 1 0;
#X connect 60 0 61 0;
#X connect 61 0 62 0;
#X connect 62 0 63 0;
#X connect 63 0 58 1;
#X connect 64 0 68 0;
#X connect 65 0 58 0;
#X connect 66 0 26 0;
#X connect 67 0 31 0;
#X connect 68 0 12 0;
#X coords 0 -1 1 1 250 200 2 100 100;
