#N canvas 0 22 1092 598 10;
#X obj 272 49 keyname;
#X floatatom 272 71 5 0 0 0 - - -, f 5;
#X obj 420 104 key;
#X floatatom 420 126 5 0 0 0 - - -, f 5;
#X obj 420 145 sel 49;
#X msg 420 166 1;
#X obj 272 183 *~;
#X msg 453 166 0;
#X obj 272 205 outlet~ ONE;
#X obj 105 111 cnv 5 5 5 empty empty KEYBOARD-GATES 0 0 0 12 -262144
-66577 0;
#X text 103 121 PRESS 1-4 on keyboard:;
#X obj 272 90 t f f;
#X obj 387 284 s \$0-kb-gates-1-r;
#X obj 232 142 cnv 15 15 15 empty \$0-kb-gates-4-r empty 20 12 0 14
-33289 -262144 0;
#X obj 387 199 spigot;
#X obj 387 221 + 12;
#X floatatom 387 243 5 0 0 0 - - -, f 5;
#X msg 387 262 color \$1;
#X obj 504 50 keyname;
#X floatatom 504 72 5 0 0 0 - - -, f 5;
#X obj 652 95 key;
#X floatatom 652 117 5 0 0 0 - - -, f 5;
#X msg 652 157 1;
#X obj 504 174 *~;
#X msg 685 157 0;
#X obj 504 91 t f f;
#X obj 619 190 spigot;
#X obj 619 212 + 12;
#X floatatom 619 234 5 0 0 0 - - -, f 5;
#X msg 619 253 color \$1;
#X obj 504 196 outlet~ TWO;
#X obj 619 275 s \$0-kb-gates-2-r;
#X obj 652 136 sel 50;
#X obj 104 142 cnv 15 15 15 empty \$0-kb-gates-1-r empty 20 12 0 14
-258699 -262144 0;
#X obj 143 142 cnv 15 15 15 empty \$0-kb-gates-2-r empty 20 12 0 14
-33289 -262144 0;
#X obj 190 142 cnv 15 15 15 empty \$0-kb-gates-3-r empty 20 12 0 14
-33289 -262144 0;
#X obj 272 111 pack 0 10;
#X obj 272 133 line~;
#X obj 504 125 pack 0 10;
#X obj 504 147 line~;
#X connect 0 0 1 0;
#X connect 1 0 11 0;
#X connect 2 0 3 0;
#X connect 3 0 4 0;
#X connect 4 0 5 0;
#X connect 4 1 7 0;
#X connect 5 0 6 1;
#X connect 5 0 14 1;
#X connect 6 0 8 0;
#X connect 7 0 6 1;
#X connect 7 0 14 1;
#X connect 11 0 36 0;
#X connect 11 1 14 0;
#X connect 14 0 15 0;
#X connect 15 0 16 0;
#X connect 16 0 17 0;
#X connect 17 0 12 0;
#X connect 18 0 19 0;
#X connect 19 0 25 0;
#X connect 20 0 21 0;
#X connect 21 0 32 0;
#X connect 22 0 23 1;
#X connect 22 0 26 1;
#X connect 23 0 30 0;
#X connect 24 0 23 1;
#X connect 24 0 26 1;
#X connect 25 0 38 0;
#X connect 25 1 26 0;
#X connect 26 0 27 0;
#X connect 27 0 28 0;
#X connect 28 0 29 0;
#X connect 29 0 31 0;
#X connect 32 0 22 0;
#X connect 32 1 24 0;
#X connect 36 0 37 0;
#X connect 37 0 6 0;
#X connect 38 0 39 0;
#X connect 39 0 23 0;
#X coords 0 -1 1 1 150 65 2 100 100;
