#N canvas 0 22 715 550 10;
#X obj 330 105 sel 0;
#X obj 357 298 vline~;
#X obj 273 67 unpack f f;
#X msg 357 265 1 \$1 \, \$3 \$2 \$1;
#X obj 357 235 pack f f f;
#X obj 357 201 f;
#X obj 372 88 / 127;
#X obj 372 110 * 2000;
#X obj 408 154 / 127;
#X obj 408 176 * 2000;
#X obj 475 174 / 127;
#X msg 503 281 0 \$1;
#X obj 503 257 f;
#X obj 518 204 / 127;
#X obj 518 226 * 5000;
#X obj 475 218 + 0.5;
#X obj 475 196 * 0.4;
#X obj 273 45 r notes;
#X obj 372 66 r \$0-organelle-adsr-attack-s;
#X obj 385 131 r \$0-organelle-adsr-decay-s;
#X obj 475 152 r \$0-organelle-adsr-sustain-s;
#X obj 518 182 r \$0-organelle-adsr-release-s;
#X obj 357 407 outlet~;
#X obj 135 162 vsl 15 128 1.27 127 1 1 \$0-organelle-adsr-decay-s \$0-organelle-adsr-decay-r
D 3 -9 0 10 -262144 -1 -1 12700 1;
#X obj 120 162 vsl 15 128 1.27 127 1 1 \$0-organelle-adsr-attack-s
\$0-organelle-adsr-attack-r A 3 -9 0 10 -262144 -1 -1 0 1;
#X obj 165 162 vsl 15 128 0 127 0 1 \$0-organelle-adsr-release-s \$0-organelle-adsr-release-r
R 3 -9 0 10 -262144 -1 -1 6000 1;
#X obj 150 162 vsl 15 128 0 127 0 1 \$0-organelle-adsr-sustain-s \$0-organelle-adsr-sustain-r
S 3 -9 0 10 -262144 -1 -1 8900 1;
#X obj 104 103 bng 15 250 50 0 empty empty empty 17 7 0 10 -262144
-1 -1;
#X obj 330 127 t b;
#X obj 357 159 t b b;
#X obj 118 127 cnv 5 5 5 empty empty ORGANELLE 0 0 0 12 -262144 -66577
0;
#X obj 132 140 cnv 5 5 5 empty empty ADSR 0 0 0 12 -262144 -66577 0
;
#N canvas 21 22 593 735 state-saving-multiple-instances 0;
#X obj 201 29 loadbang;
#X obj 247 481 textfile;
#X obj 247 503 unpack f f f f;
#X msg 548 464 rewind;
#X msg 505 464 bang;
#X obj 105 691 textfile;
#X obj 505 425 t b b;
#X obj 106 400 pack f f f f;
#X obj 106 357 f;
#X obj 118 580 f;
#X msg 182 580 clear;
#X msg 106 438 set \$1 \$2 \$3 \$4;
#X obj 267 217 outlet;
#X text 263 237 INSTANCE NUMBER;
#X obj 228 93 f \$1;
#X obj 228 129 t f f f;
#X obj 41 388 bng 15 250 50 0 empty empty empty 17 7 0 10 -262144 -1
-1;
#X obj 41 362 r SAVE-S;
#X obj 201 62 t b b;
#X obj 41 423 t b b b;
#X obj 121 309 r \$0-organelle-adsr-attack-s;
#X obj 247 605 s \$0-organelle-adsr-attack-r;
#X msg 247 456 read statesave/\$1-organelle-adsr-ss.txt;
#X msg 118 651 write statesave/\$1-organelle-adsr-ss.txt;
#X obj 129 332 r \$0-organelle-adsr-decay-s;
#X obj 274 579 s \$0-organelle-adsr-decay-r;
#X obj 152 353 r \$0-organelle-adsr-sustain-s;
#X obj 301 552 s \$0-organelle-adsr-sustain-r;
#X obj 175 374 r \$0-organelle-adsr-release-s;
#X obj 328 526 s \$0-organelle-adsr-release-r;
#X connect 0 0 18 0;
#X connect 1 0 2 0;
#X connect 2 0 21 0;
#X connect 2 1 25 0;
#X connect 2 2 27 0;
#X connect 2 3 29 0;
#X connect 3 0 1 0;
#X connect 4 0 1 0;
#X connect 6 0 4 0;
#X connect 6 1 3 0;
#X connect 7 0 11 0;
#X connect 8 0 7 0;
#X connect 9 0 23 0;
#X connect 10 0 5 0;
#X connect 11 0 5 0;
#X connect 14 0 15 0;
#X connect 15 0 9 1;
#X connect 15 1 22 0;
#X connect 15 2 12 0;
#X connect 16 0 19 0;
#X connect 17 0 16 0;
#X connect 18 0 6 0;
#X connect 18 1 14 0;
#X connect 19 0 9 0;
#X connect 19 1 8 0;
#X connect 19 2 10 0;
#X connect 20 0 8 1;
#X connect 22 0 1 0;
#X connect 23 0 5 0;
#X connect 24 0 7 1;
#X connect 26 0 7 2;
#X connect 28 0 7 3;
#X restore 50 409 pd state-saving-multiple-instances;
#X obj 357 330 *~;
#X obj 357 352 *~;
#X obj 50 481 s \$0-instance-num;
#X obj 50 433 makefilename %d;
#X obj 164 140 cnv 5 5 5 empty \$0-instance-num 2 0 0 0 12 -262144
-66577 0;
#X msg 50 458 label \$1;
#X obj 103 288 cnv 5 5 5 empty empty OUT 0 0 0 8 -262144 -1 0;
#X connect 0 0 28 0;
#X connect 0 1 29 0;
#X connect 1 0 33 0;
#X connect 1 0 33 1;
#X connect 2 1 0 0;
#X connect 3 0 1 0;
#X connect 4 0 3 0;
#X connect 5 0 4 0;
#X connect 6 0 7 0;
#X connect 7 0 5 1;
#X connect 8 0 9 0;
#X connect 9 0 4 1;
#X connect 10 0 16 0;
#X connect 11 0 1 0;
#X connect 12 0 11 0;
#X connect 13 0 14 0;
#X connect 14 0 12 1;
#X connect 15 0 4 2;
#X connect 16 0 15 0;
#X connect 17 0 2 0;
#X connect 18 0 6 0;
#X connect 19 0 8 0;
#X connect 20 0 10 0;
#X connect 21 0 13 0;
#X connect 28 0 12 0;
#X connect 29 0 5 0;
#X connect 29 1 27 0;
#X connect 32 0 36 0;
#X connect 33 0 34 0;
#X connect 33 0 34 1;
#X connect 34 0 22 0;
#X connect 36 0 38 0;
#X connect 38 0 35 0;
#X coords 0 -1 1 1 100 200 2 100 100;
